<svg width="240" height="240" viewBox="0 0 240 240" fill="none" xmlns="http://www.w3.org/2000/svg">
<rect width="240" height="240" rx="32.0001" fill="#3D155F"/>
<path d="M120 106.126C122.118 99.5916 125.692 93.7109 130.34 88.8655C130.142 79.4514 126.695 70.0872 120 62.5973C113.305 70.0872 109.858 79.4514 109.659 88.8655C114.308 93.7109 117.882 99.5916 120 106.126Z" fill="#3D155F"/>
<path d="M117.296 113.471C116.271 107.136 113.78 101.29 110.18 96.2924C111.168 102.372 113.54 108.267 117.296 113.471Z" fill="#3D155F"/>
<path d="M105.296 90.6727C105.436 97.3857 107.067 104.071 110.19 110.19C104.071 107.067 97.3857 105.436 90.6728 105.296C84.1566 98.499 79.9722 89.4404 79.4101 79.4101C89.4404 79.9722 98.499 84.1566 105.296 90.6727Z" fill="#3D155F"/>
<path d="M105.528 85.0612C106.484 75.8321 110.281 66.8376 116.919 59.4968C109.431 52.715 100.036 49.2097 90.5824 48.9798C84.0601 55.8272 79.8955 64.9491 79.396 75.0395C89.2805 75.5365 98.3259 79.2113 105.528 85.0612Z" fill="#3D155F"/>
<path d="M123.08 59.4968C129.718 66.8376 133.516 75.8321 134.472 85.0612C141.674 79.2113 150.719 75.5365 160.604 75.0395C160.104 64.9491 155.94 55.8272 149.417 48.9798C139.964 49.2097 130.569 52.715 123.08 59.4968Z" fill="#3D155F"/>
<path d="M144.952 44.9343C135.926 46.0302 127.164 49.8524 120 56.4C112.836 49.8524 104.074 46.0302 95.0482 44.9343C101.937 39.5625 110.597 36.3635 120 36.3635C129.403 36.3635 138.063 39.5625 144.952 44.9343Z" fill="#3D155F"/>
<path d="M155.436 49.2771C161.043 56.4342 164.536 65.3324 164.972 75.028C174.667 75.4638 183.566 78.9566 190.723 84.564C189.65 75.8945 185.789 67.5092 179.14 60.8601C172.491 54.2109 164.105 50.3496 155.436 49.2771Z" fill="#3D155F"/>
<path d="M191.02 90.5823C184.173 84.0601 175.051 79.8955 164.96 79.396C164.463 89.2805 160.788 98.3259 154.939 105.528C164.168 106.484 173.162 110.281 180.503 116.919C187.285 109.431 190.79 100.036 191.02 90.5823Z" fill="#3D155F"/>
<path d="M177.402 120C169.913 113.305 160.548 109.858 151.134 109.659C146.289 114.308 140.408 117.882 133.873 120C140.408 122.118 146.289 125.692 151.134 130.34C160.548 130.141 169.913 126.695 177.402 120Z" fill="#3D155F"/>
<path d="M154.939 134.472C164.168 133.516 173.162 129.718 180.503 123.08C187.285 130.569 190.79 139.964 191.02 149.417C184.173 155.94 175.051 160.104 164.96 160.604C164.463 150.719 160.788 141.674 154.939 134.472Z" fill="#3D155F"/>
<path d="M143.707 129.82C138.71 126.22 132.864 123.729 126.529 122.704C131.733 126.459 137.628 128.831 143.707 129.82Z" fill="#3D155F"/>
<path d="M129.81 129.81C135.928 132.933 142.614 134.564 149.327 134.703C155.843 141.501 160.028 150.559 160.59 160.59C150.559 160.028 141.501 155.843 134.703 149.327C134.564 142.614 132.933 135.928 129.81 129.81Z" fill="#3D155F"/>
<path d="M183.6 120C190.147 112.836 193.97 104.074 195.065 95.0482C200.437 101.937 203.636 110.597 203.636 120C203.636 129.403 200.437 138.063 195.065 144.952C193.97 135.926 190.147 127.164 183.6 120Z" fill="#3D155F"/>
<path d="M129.82 96.2924C126.22 101.29 123.729 107.136 122.704 113.471C126.459 108.267 128.831 102.372 129.82 96.2924Z" fill="#3D155F"/>
<path d="M129.81 110.19C135.928 107.067 142.614 105.436 149.327 105.296C155.843 98.499 160.028 89.4404 160.59 79.4101C150.559 79.9722 141.501 84.1566 134.703 90.6727C134.564 97.3857 132.933 104.071 129.81 110.19Z" fill="#3D155F"/>
<path d="M143.707 110.18C138.71 113.78 132.864 116.271 126.529 117.296C131.733 113.54 137.628 111.168 143.707 110.18Z" fill="#3D155F"/>
<path d="M36.3635 120C36.3635 129.403 39.5625 138.063 44.9343 144.952C46.0302 135.926 49.8524 127.164 56.4 120C49.8524 112.836 46.0302 104.074 44.9344 95.0482C39.5625 101.937 36.3635 110.597 36.3635 120Z" fill="#3D155F"/>
<path d="M60.86 179.14C54.2108 172.491 50.3496 164.105 49.277 155.436C56.4341 161.043 65.3324 164.536 75.028 164.972C75.4638 174.667 78.9566 183.566 84.564 190.723C75.8945 189.65 67.5092 185.789 60.86 179.14Z" fill="#3D155F"/>
<path d="M120 203.636C110.597 203.636 101.937 200.437 95.0482 195.065C104.074 193.97 112.836 190.147 120 183.6C127.164 190.147 135.926 193.97 144.952 195.065C138.063 200.437 129.403 203.636 120 203.636Z" fill="#3D155F"/>
<path d="M90.5824 191.02C100.036 190.79 109.431 187.285 116.919 180.503C110.281 173.162 106.484 164.168 105.528 154.938C98.3259 160.788 89.2805 164.463 79.396 164.96C79.8955 175.051 84.0601 184.173 90.5824 191.02Z" fill="#3D155F"/>
<path d="M149.417 191.02C139.964 190.79 130.569 187.285 123.08 180.503C129.718 173.162 133.516 164.168 134.472 154.938C141.674 160.788 150.719 164.463 160.604 164.96C160.104 175.051 155.94 184.173 149.417 191.02Z" fill="#3D155F"/>
<path d="M120 177.402C126.695 169.913 130.141 160.548 130.34 151.134C125.692 146.289 122.118 140.408 120 133.873C117.882 140.408 114.308 146.289 109.659 151.134C109.858 160.548 113.305 169.913 120 177.402Z" fill="#3D155F"/>
<path d="M129.82 143.707C128.831 137.628 126.459 131.733 122.704 126.529C123.729 132.864 126.22 138.71 129.82 143.707Z" fill="#3D155F"/>
<path d="M113.471 117.296C108.267 113.54 102.372 111.168 96.2924 110.18C101.29 113.78 107.136 116.271 113.471 117.296Z" fill="#3D155F"/>
<path d="M75.0395 79.396C75.5365 89.2805 79.2113 98.3259 85.0613 105.528C75.8322 106.484 66.8376 110.281 59.4968 116.919C52.7151 109.431 49.2097 100.036 48.9798 90.5824C55.8273 84.0601 64.9491 79.8955 75.0395 79.396Z" fill="#3D155F"/>
<path d="M88.8656 109.659C79.4514 109.858 70.0872 113.305 62.5973 120C70.0872 126.695 79.4514 130.141 88.8656 130.34C93.7109 125.692 99.5916 122.118 106.126 120C99.5916 117.882 93.7109 114.308 88.8656 109.659Z" fill="#3D155F"/>
<path d="M85.0613 134.472C75.8322 133.516 66.8376 129.718 59.4968 123.08C52.7151 130.569 49.2097 139.964 48.9797 149.417C55.8272 155.94 64.9491 160.104 75.0395 160.604C75.5365 150.719 79.2113 141.674 85.0613 134.472Z" fill="#3D155F"/>
<path d="M190.723 155.436C183.566 161.043 174.667 164.536 164.972 164.972C164.536 174.667 161.043 183.566 155.436 190.723C164.105 189.65 172.491 185.789 179.14 179.14C185.789 172.491 189.65 164.105 190.723 155.436Z" fill="#3D155F"/>
<path d="M117.296 126.529C113.54 131.733 111.168 137.628 110.18 143.707C113.78 138.71 116.271 132.864 117.296 126.529Z" fill="#3D155F"/>
<path d="M105.296 149.327C98.499 155.843 89.4405 160.028 79.4101 160.59C79.9722 150.559 84.1566 141.501 90.6728 134.703C97.3857 134.564 104.071 132.933 110.19 129.81C107.067 135.928 105.436 142.614 105.296 149.327Z" fill="#3D155F"/>
<path d="M113.471 122.704C107.136 123.729 101.29 126.22 96.2924 129.82C102.372 128.831 108.267 126.459 113.471 122.704Z" fill="#3D155F"/>
<path d="M75.028 75.028C65.3325 75.4638 56.4342 78.9566 49.2771 84.564C50.3496 75.8945 54.2109 67.5092 60.8601 60.86C67.5093 54.2109 75.8945 50.3496 84.564 49.277C78.9566 56.4342 75.4638 65.3324 75.028 75.028Z" fill="#3D155F"/>
<path d="M120 106.126C122.118 99.5916 125.692 93.7109 130.34 88.8655C130.142 79.4514 126.695 70.0872 120 62.5973C113.305 70.0872 109.858 79.4514 109.659 88.8655C114.308 93.7109 117.882 99.5916 120 106.126Z" fill="#553373"/>
<path d="M105.296 90.6727C105.436 97.3857 107.067 104.071 110.19 110.19C104.071 107.067 97.3857 105.436 90.6728 105.296C84.1566 98.499 79.9722 89.4404 79.4101 79.4101C89.4404 79.9722 98.499 84.1566 105.296 90.6727Z" fill="#553373"/>
<path d="M144.952 44.9343C135.926 46.0302 127.164 49.8524 120 56.4C112.836 49.8524 104.074 46.0302 95.0482 44.9343C101.937 39.5625 110.597 36.3635 120 36.3635C129.403 36.3635 138.063 39.5625 144.952 44.9343Z" fill="#553373"/>
<path d="M155.436 49.2771C161.043 56.4342 164.536 65.3324 164.972 75.028C174.667 75.4638 183.566 78.9566 190.723 84.564C189.65 75.8945 185.789 67.5092 179.14 60.8601C172.491 54.2109 164.105 50.3496 155.436 49.2771Z" fill="#553373"/>
<path d="M177.402 120C169.913 113.305 160.548 109.858 151.134 109.659C146.289 114.308 140.408 117.882 133.873 120C140.408 122.118 146.289 125.692 151.134 130.34C160.548 130.141 169.913 126.695 177.402 120Z" fill="#553373"/>
<path d="M129.81 129.81C135.928 132.933 142.614 134.564 149.327 134.703C155.843 141.501 160.028 150.559 160.59 160.59C150.559 160.028 141.501 155.843 134.703 149.327C134.564 142.614 132.933 135.928 129.81 129.81Z" fill="#553373"/>
<path d="M183.6 120C190.147 112.836 193.97 104.074 195.065 95.0482C200.437 101.937 203.636 110.597 203.636 120C203.636 129.403 200.437 138.063 195.065 144.952C193.97 135.926 190.147 127.164 183.6 120Z" fill="#553373"/>
<path d="M129.81 110.19C135.928 107.067 142.614 105.436 149.327 105.296C155.843 98.499 160.028 89.4404 160.59 79.4101C150.559 79.9722 141.501 84.1566 134.703 90.6727C134.564 97.3857 132.933 104.071 129.81 110.19Z" fill="#553373"/>
<path d="M36.3635 120C36.3635 129.403 39.5625 138.063 44.9343 144.952C46.0302 135.926 49.8524 127.164 56.4 120C49.8524 112.836 46.0302 104.074 44.9344 95.0482C39.5625 101.937 36.3635 110.597 36.3635 120Z" fill="#553373"/>
<path d="M60.86 179.14C54.2108 172.491 50.3496 164.105 49.277 155.436C56.4341 161.043 65.3324 164.536 75.028 164.972C75.4638 174.667 78.9566 183.566 84.564 190.723C75.8945 189.65 67.5092 185.789 60.86 179.14Z" fill="#553373"/>
<path d="M120 203.636C110.597 203.636 101.937 200.437 95.0482 195.065C104.074 193.97 112.836 190.147 120 183.6C127.164 190.147 135.926 193.97 144.952 195.065C138.063 200.437 129.403 203.636 120 203.636Z" fill="#553373"/>
<path d="M120 177.402C126.695 169.913 130.141 160.548 130.34 151.134C125.692 146.289 122.118 140.408 120 133.873C117.882 140.408 114.308 146.289 109.659 151.134C109.858 160.548 113.305 169.913 120 177.402Z" fill="#553373"/>
<path d="M88.8656 109.659C79.4514 109.858 70.0872 113.305 62.5973 120C70.0872 126.695 79.4514 130.141 88.8656 130.34C93.7109 125.692 99.5916 122.118 106.126 120C99.5916 117.882 93.7109 114.308 88.8656 109.659Z" fill="#553373"/>
<path d="M190.723 155.436C183.566 161.043 174.667 164.536 164.972 164.972C164.536 174.667 161.043 183.566 155.436 190.723C164.105 189.65 172.491 185.789 179.14 179.14C185.789 172.491 189.65 164.105 190.723 155.436Z" fill="#553373"/>
<path d="M105.296 149.327C98.499 155.843 89.4405 160.028 79.4101 160.59C79.9722 150.559 84.1566 141.501 90.6728 134.703C97.3857 134.564 104.071 132.933 110.19 129.81C107.067 135.928 105.436 142.614 105.296 149.327Z" fill="#553373"/>
<path d="M75.028 75.028C65.3325 75.4638 56.4342 78.9566 49.2771 84.564C50.3496 75.8945 54.2109 67.5092 60.8601 60.86C67.5093 54.2109 75.8945 50.3496 84.564 49.277C78.9566 56.4342 75.4638 65.3324 75.028 75.028Z" fill="#553373"/>
<path fill-rule="evenodd" clip-rule="evenodd" d="M120 117.818C142.446 117.818 160.655 99.5908 160.655 77.0912C160.655 54.5915 142.446 36.3639 120 36.3639C97.554 36.3639 79.3457 54.5915 79.3457 77.0912C79.3457 99.5908 97.554 117.818 120 117.818ZM120 122.182C144.863 122.182 165.018 101.994 165.018 77.0912C165.018 52.1881 144.863 32.0002 120 32.0002C95.1374 32.0002 74.9821 52.1881 74.9821 77.0912C74.9821 101.994 95.1374 122.182 120 122.182Z" fill="#05C3F2"/>
<path fill-rule="evenodd" clip-rule="evenodd" d="M120 203.637C142.446 203.637 160.655 185.409 160.655 162.909C160.655 140.41 142.446 122.182 120 122.182C97.554 122.182 79.3457 140.41 79.3457 162.909C79.3457 185.409 97.554 203.637 120 203.637ZM120 208C144.863 208 165.018 187.812 165.018 162.909C165.018 138.006 144.863 117.818 120 117.818C95.1374 117.818 74.9821 138.006 74.9821 162.909C74.9821 187.812 95.1374 208 120 208Z" fill="#05C3F2"/>
<path fill-rule="evenodd" clip-rule="evenodd" d="M117.818 120C117.818 97.554 99.5908 79.3457 77.0912 79.3457C54.5915 79.3457 36.3639 97.554 36.3639 120C36.3639 142.446 54.5915 160.655 77.0912 160.655C99.5908 160.655 117.818 142.446 117.818 120ZM122.182 120C122.182 95.1374 101.994 74.9821 77.0912 74.9821C52.1881 74.9821 32.0002 95.1374 32.0002 120C32.0002 144.863 52.1881 165.018 77.0912 165.018C101.994 165.018 122.182 144.863 122.182 120Z" fill="#05C3F2"/>
<path fill-rule="evenodd" clip-rule="evenodd" d="M203.637 120C203.637 97.554 185.409 79.3457 162.909 79.3457C140.41 79.3457 122.182 97.554 122.182 120C122.182 142.446 140.41 160.655 162.909 160.655C185.409 160.655 203.637 142.446 203.637 120ZM208 120C208 95.1374 187.812 74.9821 162.909 74.9821C138.006 74.9821 117.818 95.1374 117.818 120C117.818 144.863 138.006 165.018 162.909 165.018C187.812 165.018 208 144.863 208 120Z" fill="#05C3F2"/>
<path fill-rule="evenodd" clip-rule="evenodd" d="M118.457 118.457C134.329 102.586 134.316 76.8215 118.406 60.9118C102.496 45.0021 76.7323 44.9885 60.8604 60.8604C44.9885 76.7323 45.0022 102.496 60.9119 118.406C76.8215 134.316 102.586 134.329 118.457 118.457ZM121.543 121.543C139.124 103.962 139.101 75.4354 121.492 57.8263C103.883 40.2172 75.3556 40.1942 57.7749 57.7748C40.1942 75.3555 40.2172 103.883 57.8263 121.492C75.4354 139.101 103.962 139.124 121.543 121.543Z" fill="#05C3F2"/>
<path fill-rule="evenodd" clip-rule="evenodd" d="M179.14 179.14C195.012 163.268 194.998 137.504 179.089 121.594C163.179 105.685 137.415 105.671 121.543 121.543C105.671 137.415 105.685 163.179 121.594 179.089C137.504 194.998 163.268 195.012 179.14 179.14ZM182.226 182.226C199.806 164.645 199.783 136.118 182.174 118.509C164.565 100.9 136.038 100.877 118.457 118.457C100.877 136.038 100.9 164.565 118.509 182.174C136.118 199.783 164.645 199.806 182.226 182.226Z" fill="#05C3F2"/>
<path fill-rule="evenodd" clip-rule="evenodd" d="M118.457 121.543C102.586 105.671 76.8215 105.685 60.9118 121.594C45.0021 137.504 44.9885 163.268 60.8604 179.14C76.7323 195.012 102.496 194.998 118.406 179.089C134.316 163.179 134.329 137.415 118.457 121.543ZM121.543 118.457C103.962 100.877 75.4353 100.9 57.8263 118.509C40.2172 136.118 40.1941 164.645 57.7748 182.226C75.3555 199.806 103.882 199.783 121.492 182.174C139.101 164.565 139.124 136.038 121.543 118.457Z" fill="#05C3F2"/>
<path fill-rule="evenodd" clip-rule="evenodd" d="M179.14 60.8604C163.268 44.9885 137.504 45.0022 121.594 60.9118C105.685 76.8215 105.671 102.586 121.543 118.457C137.415 134.329 163.179 134.316 179.089 118.406C194.998 102.496 195.012 76.7323 179.14 60.8604ZM182.226 57.7749C164.645 40.1942 136.118 40.2172 118.509 57.8263C100.9 75.4354 100.877 103.962 118.457 121.543C136.038 139.124 164.565 139.101 182.174 121.492C199.783 103.883 199.806 75.3555 182.226 57.7749Z" fill="#05C3F2"/>
</svg>
