<svg width="40" height="40" viewBox="0 0 40 40" fill="none" xmlns="http://www.w3.org/2000/svg">
<path d="M26.6667 6.66675H30.0001C30.8841 6.66675 31.732 7.01794 32.3571 7.64306C32.9822 8.26818 33.3334 9.11603 33.3334 10.0001V33.3334C33.3334 34.2175 32.9822 35.0653 32.3571 35.6904C31.732 36.3156 30.8841 36.6667 30.0001 36.6667H10.0001C9.11603 36.6667 8.26818 36.3156 7.64306 35.6904C7.01794 35.0653 6.66675 34.2175 6.66675 33.3334V10.0001C6.66675 9.11603 7.01794 8.26818 7.64306 7.64306C8.26818 7.01794 9.11603 6.66675 10.0001 6.66675H13.3334" fill="#EEEAFF"/>
<path d="M26.6667 6.66675H30.0001C30.8841 6.66675 31.732 7.01794 32.3571 7.64306C32.9822 8.26818 33.3334 9.11603 33.3334 10.0001V33.3334C33.3334 34.2175 32.9822 35.0653 32.3571 35.6904C31.732 36.3156 30.8841 36.6667 30.0001 36.6667H10.0001C9.11603 36.6667 8.26818 36.3156 7.64306 35.6904C7.01794 35.0653 6.66675 34.2175 6.66675 33.3334V10.0001C6.66675 9.11603 7.01794 8.26818 7.64306 7.64306C8.26818 7.01794 9.11603 6.66675 10.0001 6.66675H13.3334" stroke="#59499E" stroke-width="2" stroke-linecap="round" stroke-linejoin="round"/>
<path d="M24.9999 3.33325H14.9999C14.0794 3.33325 13.3333 4.07944 13.3333 4.99992V8.33325C13.3333 9.25373 14.0794 9.99992 14.9999 9.99992H24.9999C25.9204 9.99992 26.6666 9.25373 26.6666 8.33325V4.99992C26.6666 4.07944 25.9204 3.33325 24.9999 3.33325Z" fill="#EEEAFF" stroke="#59499E" stroke-width="2" stroke-linecap="round" stroke-linejoin="round"/>
</svg>
